<svg width="40" height="40" viewBox="0 0 40 40" fill="none" xmlns="http://www.w3.org/2000/svg">
<g clip-path="url(#clip0_88_85)">
<rect width="40" height="40" rx="12" fill="#B0EE93"/>
<path d="M8 22C6.4 22.8 1.83333 18 0 18L-1 33.5L32.5 38.5C34.1667 36.6667 37.4 32.6 37 31C36.5 29 35 27.5 34 27.5C33 27.5 31.5 25 31 24.5C30.5 24 28 24 27.5 24.5C27 25 27 25.5 23.5 24.5C20 23.5 19 25 18 23C17 21 15.5 22 12.5 21C9.5 20 10 21 8 22Z" fill="#81A731"/>
<path d="M8.5 15.5C6.03138 14.9962 1.12804 13.6911 -1.36646 13.1352C-1.68673 13.0638 -1.98059 13.3208 -1.96078 13.6483L-0.788108 33.0317C-0.774442 33.2576 -0.610765 33.4461 -0.389042 33.4914L7 35M8.5 15.5L7 35M8.5 15.5C11.8276 16.1791 14.9267 16.7546 18.5 17.5M7 35L15.8805 36.7018M15.8805 36.7018L18.5 17.5M15.8805 36.7018L24.5 38.5M18.5 17.5C30.8461 20.0755 40.3162 21.8739 39.9921 22.2195C39.5087 22.7349 35.0455 33.7979 32.7321 39.6212C32.6438 39.8433 32.4123 39.9686 32.1773 39.925L24.5 38.5M29.494 20.2439L24.5 38.5" stroke="white" stroke-width="5" stroke-linecap="round" stroke-linejoin="round"/>
<path d="M-0.5 23L36.5 31" stroke="white" stroke-width="4.5"/>
<path d="M2 15.9157C4.29952 10.6774 11.0667 2.14191 21.7101 4.36051C32.3536 6.57911 35.8357 15.9157 36 21" stroke="white" stroke-width="3.5"/>
</g>
<defs>
<clipPath id="clip0_88_85">
<rect width="40" height="40" rx="12" fill="white"/>
</clipPath>
</defs>
</svg>
